<?xml version="1.0" encoding="UTF-8" standalone="no"?>
<!-- Created with Inkscape (http://www.inkscape.org/) -->

<svg
   xmlns:dc="http://purl.org/dc/elements/1.1/"
   xmlns:cc="http://creativecommons.org/ns#"
   xmlns:rdf="http://www.w3.org/1999/02/22-rdf-syntax-ns#"
   xmlns:svg="http://www.w3.org/2000/svg"
   xmlns="http://www.w3.org/2000/svg"
   xmlns:xlink="http://www.w3.org/1999/xlink"
   xmlns:sodipodi="http://sodipodi.sourceforge.net/DTD/sodipodi-0.dtd"
   xmlns:inkscape="http://www.inkscape.org/namespaces/inkscape"
   version="1.0"
   width="48"
   height="48"
   id="svg7722"
   inkscape:version="0.48.4 r9939"
   sodipodi:docname="gtk-greeter-settings_48.svg">
  <metadata
     id="metadata92379">
    <rdf:RDF>
      <cc:Work
         rdf:about="">
        <dc:format>image/svg+xml</dc:format>
        <dc:type
           rdf:resource="http://purl.org/dc/dcmitype/StillImage" />
        <dc:title />
      </cc:Work>
    </rdf:RDF>
  </metadata>
  <sodipodi:namedview
     pagecolor="#ffffff"
     bordercolor="#666666"
     borderopacity="1"
     objecttolerance="10"
     gridtolerance="10"
     guidetolerance="10"
     inkscape:pageopacity="0"
     inkscape:pageshadow="2"
     inkscape:window-width="1265"
     inkscape:window-height="1000"
     id="namedview92377"
     showgrid="true"
     inkscape:zoom="4.9166667"
     inkscape:cx="78.898314"
     inkscape:cy="39.816724"
     inkscape:window-x="367"
     inkscape:window-y="90"
     inkscape:window-maximized="0"
     inkscape:current-layer="svg7722">
    <inkscape:grid
       type="xygrid"
       id="grid4060" />
  </sodipodi:namedview>
  <defs
     id="defs7724">
    <linearGradient
       id="linearGradient3885">
      <stop
         offset="0"
         style="stop-color:#f5f5f5;stop-opacity:1;"
         id="stop3887" />
      <stop
         offset="0.08552461"
         style="stop-color:#efefef;stop-opacity:1;"
         id="stop3889" />
      <stop
         offset="0.92166406"
         style="stop-color:#d4d4d4;stop-opacity:1;"
         id="stop3891" />
      <stop
         offset="1"
         style="stop-color:#8f8f8f;stop-opacity:1"
         id="stop3893" />
    </linearGradient>
    <linearGradient
       id="linearGradient3875">
      <stop
         offset="0"
         style="stop-color:#d8d8d8;stop-opacity:1"
         id="stop3877" />
      <stop
         offset="0.61530972"
         style="stop-color:#afafaf;stop-opacity:1"
         id="stop3879" />
      <stop
         offset="0.85851103"
         style="stop-color:#aaaaaa;stop-opacity:1"
         id="stop3881" />
      <stop
         offset="1"
         style="stop-color:#8f8f8f;stop-opacity:1"
         id="stop3883" />
    </linearGradient>
    <linearGradient
       id="linearGradient5048-7">
      <stop
         id="stop5050-5"
         style="stop-color:#000000;stop-opacity:0"
         offset="0" />
      <stop
         id="stop5056-9"
         style="stop-color:#000000;stop-opacity:1"
         offset="0.5" />
      <stop
         id="stop5052-6"
         style="stop-color:#000000;stop-opacity:0"
         offset="1" />
    </linearGradient>
    <linearGradient
       x1="302.85715"
       y1="366.64789"
       x2="302.85715"
       y2="609.50507"
       id="linearGradient2456"
       xlink:href="#linearGradient5048-7"
       gradientUnits="userSpaceOnUse"
       gradientTransform="matrix(0.06553443,0,0,0.02470588,0.3139865,31.941639)" />
    <radialGradient
       cx="605.71429"
       cy="486.64789"
       r="117.14286"
       fx="605.71429"
       fy="486.64789"
       id="radialGradient2453"
       xlink:href="#linearGradient5060-6"
       gradientUnits="userSpaceOnUse"
       gradientTransform="matrix(0.06553443,0,0,0.02470588,0.3268837,31.941639)" />
    <linearGradient
       id="linearGradient5060-6">
      <stop
         id="stop5062-3"
         style="stop-color:#000000;stop-opacity:1"
         offset="0" />
      <stop
         id="stop5064-1"
         style="stop-color:#000000;stop-opacity:0"
         offset="1" />
    </linearGradient>
    <radialGradient
       cx="605.71429"
       cy="486.64789"
       r="117.14286"
       fx="605.71429"
       fy="486.64789"
       id="radialGradient2450"
       xlink:href="#linearGradient5060-6"
       gradientUnits="userSpaceOnUse"
       gradientTransform="matrix(-0.06553443,0,0,0.02470588,47.673126,31.941639)" />
    <linearGradient
       id="linearGradient4008-764">
      <stop
         id="stop4334"
         style="stop-color:#595959;stop-opacity:1"
         offset="0" />
      <stop
         id="stop4336"
         style="stop-color:#b3b3b3;stop-opacity:1"
         offset="1" />
    </linearGradient>
    <linearGradient
       x1="10.014208"
       y1="44.960102"
       x2="10.014208"
       y2="2.8764627"
       id="linearGradient2447"
       xlink:href="#linearGradient4008-764"
       gradientUnits="userSpaceOnUse"
       gradientTransform="matrix(0.9574517,0,0,0.9034707,1.021174,4.3056311)" />
    <linearGradient
       id="linearGradient3994-617">
      <stop
         id="stop4324"
         style="stop-color:#d8d8d8;stop-opacity:1"
         offset="0" />
      <stop
         id="stop2860"
         style="stop-color:#afafaf;stop-opacity:1"
         offset="0.08552461" />
      <stop
         id="stop2862"
         style="stop-color:#aaaaaa;stop-opacity:1"
         offset="0.92166406" />
      <stop
         id="stop4326"
         style="stop-color:#8f8f8f;stop-opacity:1"
         offset="1" />
    </linearGradient>
    <linearGradient
       x1="23.999996"
       y1="7.9600015"
       x2="23.999996"
       y2="43.865456"
       id="linearGradient2445"
       xlink:href="#linearGradient3994-617"
       gradientUnits="userSpaceOnUse" />
    <linearGradient
       x1="12.578789"
       y1="-7.8073711"
       x2="12.578789"
       y2="41.827358"
       id="linearGradient2430"
       xlink:href="#linearGradient2238-2-3"
       gradientUnits="userSpaceOnUse"
       gradientTransform="matrix(0.9546411,0,0,0.8965269,1.087452,5.3852458)" />
    <linearGradient
       id="linearGradient2490-654-721">
      <stop
         id="stop2913"
         style="stop-color:#545454;stop-opacity:1"
         offset="0" />
      <stop
         id="stop2915"
         style="stop-color:#a4a4a4;stop-opacity:1"
         offset="1" />
    </linearGradient>
    <linearGradient
       x1="15.085011"
       y1="25.619688"
       x2="14.973154"
       y2="14.926175"
       id="linearGradient2699"
       xlink:href="#linearGradient2490-654-721"
       gradientUnits="userSpaceOnUse"
       gradientTransform="matrix(2.0602603,0,0,1.835838,-24.697058,-11.904261)" />
    <linearGradient
       id="linearGradient3664">
      <stop
         id="stop3666"
         style="stop-color:#ffffff;stop-opacity:1"
         offset="0" />
      <stop
         id="stop3668"
         style="stop-color:#ffffff;stop-opacity:0"
         offset="1" />
    </linearGradient>
    <linearGradient
       x1="22"
       y1="38"
       x2="22"
       y2="44"
       id="linearGradient2667"
       xlink:href="#linearGradient3664"
       gradientUnits="userSpaceOnUse"
       gradientTransform="translate(-2.6026087e-7,1.9999944)" />
    <linearGradient
       id="linearGradient2238-2-3">
      <stop
         id="stop2240-1-6"
         style="stop-color:#ffffff;stop-opacity:1"
         offset="0" />
      <stop
         id="stop2242-7-3"
         style="stop-color:#ffffff;stop-opacity:0"
         offset="1" />
    </linearGradient>
    <linearGradient
       x1="22.657236"
       y1="23.320877"
       x2="22.657236"
       y2="17.969503"
       id="linearGradient2708"
       xlink:href="#linearGradient2238-2-3"
       gradientUnits="userSpaceOnUse"
       gradientTransform="matrix(2.212872,0,0,2.243802,-28.304244,-20.327428)" />
    <linearGradient
       id="linearGradient8265-821-176-38-919-66-249-7-7">
      <stop
         id="stop2687-1-9"
         style="stop-color:#ffffff;stop-opacity:1"
         offset="0" />
      <stop
         id="stop2689-5-4"
         style="stop-color:#ffffff;stop-opacity:0"
         offset="1" />
    </linearGradient>
    <linearGradient
       x1="16.626165"
       y1="15.298182"
       x2="20.054544"
       y2="24.627615"
       id="linearGradient2433"
       xlink:href="#linearGradient8265-821-176-38-919-66-249-7-7"
       gradientUnits="userSpaceOnUse"
       gradientTransform="matrix(0.9578231,0,0,1.0182827,1.012241,1.9221282)" />
    <linearGradient
       id="linearGradient3355">
      <stop
         id="stop3357"
         style="stop-color:#6f716c;stop-opacity:1"
         offset="0" />
      <stop
         id="stop3359"
         style="stop-color:#888a85;stop-opacity:0"
         offset="1" />
    </linearGradient>
    <linearGradient
       x1="38.201752"
       y1="41.542465"
       x2="38.979862"
       y2="44.494751"
       id="linearGradient7720"
       xlink:href="#linearGradient3355"
       gradientUnits="userSpaceOnUse"
       gradientTransform="matrix(0.707107,-0.707107,0.707107,0.707107,-11.88416,38.03636)" />
    <linearGradient
       id="linearGradient3331">
      <stop
         id="stop3333"
         style="stop-color:#d3d7cf;stop-opacity:1"
         offset="0" />
      <stop
         id="stop3335"
         style="stop-color:#d3d7cf;stop-opacity:0"
         offset="1" />
    </linearGradient>
    <linearGradient
       x1="35.118725"
       y1="40.170986"
       x2="35.358002"
       y2="45.698715"
       id="linearGradient7718"
       xlink:href="#linearGradient3331"
       gradientUnits="userSpaceOnUse"
       gradientTransform="matrix(0.707107,-0.707107,0.707107,0.707107,-11.88416,38.03636)" />
    <linearGradient
       id="linearGradient3315">
      <stop
         id="stop3317"
         style="stop-color:#ffffff;stop-opacity:1"
         offset="0" />
      <stop
         id="stop3319"
         style="stop-color:#ffffff;stop-opacity:0"
         offset="1" />
    </linearGradient>
    <linearGradient
       x1="33.358002"
       y1="37.386215"
       x2="33.045502"
       y2="46.323711"
       id="linearGradient7715"
       xlink:href="#linearGradient3315"
       gradientUnits="userSpaceOnUse"
       gradientTransform="matrix(0.707107,-0.707107,0.707107,0.707107,-11.88416,38.03636)" />
    <linearGradient
       id="linearGradient3307">
      <stop
         id="stop3309"
         style="stop-color:#888a85;stop-opacity:1"
         offset="0" />
      <stop
         id="stop3311"
         style="stop-color:#888a85;stop-opacity:0"
         offset="1" />
    </linearGradient>
    <linearGradient
       x1="36.201752"
       y1="37.667465"
       x2="32.268337"
       y2="39.921551"
       id="linearGradient7712"
       xlink:href="#linearGradient3307"
       gradientUnits="userSpaceOnUse"
       gradientTransform="translate(-35.299138,18.492398)" />
    <linearGradient
       inkscape:collect="always"
       xlink:href="#linearGradient3307"
       id="linearGradient3052"
       gradientUnits="userSpaceOnUse"
       gradientTransform="translate(-16.914357,36.87718)"
       x1="36.201752"
       y1="37.667465"
       x2="32.268337"
       y2="39.921551" />
    <linearGradient
       inkscape:collect="always"
       xlink:href="#linearGradient3315"
       id="linearGradient3055"
       gradientUnits="userSpaceOnUse"
       gradientTransform="matrix(0.707107,-0.707107,0.707107,0.707107,14.11584,38.03636)"
       x1="33.358002"
       y1="37.386215"
       x2="33.045502"
       y2="46.323711" />
    <linearGradient
       inkscape:collect="always"
       xlink:href="#linearGradient3331"
       id="linearGradient3058"
       gradientUnits="userSpaceOnUse"
       gradientTransform="matrix(0.707107,-0.707107,0.707107,0.707107,14.11584,38.03636)"
       x1="35.118725"
       y1="40.170986"
       x2="35.358002"
       y2="45.698715" />
    <linearGradient
       inkscape:collect="always"
       xlink:href="#linearGradient3355"
       id="linearGradient3060"
       gradientUnits="userSpaceOnUse"
       gradientTransform="matrix(0.707107,-0.707107,0.707107,0.707107,14.11584,38.03636)"
       x1="38.201752"
       y1="41.542465"
       x2="38.979862"
       y2="44.494751" />
    <linearGradient
       inkscape:collect="always"
       xlink:href="#linearGradient8265-821-176-38-919-66-249-7-7"
       id="linearGradient3063"
       gradientUnits="userSpaceOnUse"
       gradientTransform="matrix(0.9578231,0,0,1.0182827,1.012241,1.9221276)"
       x1="16.626165"
       y1="15.298182"
       x2="20.054544"
       y2="24.627615" />
    <linearGradient
       inkscape:collect="always"
       xlink:href="#linearGradient2238-2-3"
       id="linearGradient3066"
       gradientUnits="userSpaceOnUse"
       gradientTransform="matrix(2.2128721,0,0,2.243802,-28.304241,-26.327429)"
       x1="22.657236"
       y1="23.320877"
       x2="22.657236"
       y2="17.969503" />
    <linearGradient
       inkscape:collect="always"
       xlink:href="#linearGradient3875"
       id="linearGradient3069"
       gradientUnits="userSpaceOnUse"
       gradientTransform="matrix(1,0,0,3.25,-2.6026087e-7,-92.500019)"
       x1="31.254238"
       y1="39.096397"
       x2="31.254238"
       y2="36.330593" />
    <linearGradient
       inkscape:collect="always"
       xlink:href="#linearGradient2490-654-721"
       id="linearGradient3076"
       gradientUnits="userSpaceOnUse"
       gradientTransform="matrix(2.0602602,0,0,1.835838,-24.697052,-17.904262)"
       x1="15.085011"
       y1="25.619688"
       x2="14.973154"
       y2="14.926175" />
    <linearGradient
       inkscape:collect="always"
       xlink:href="#linearGradient2238-2-3"
       id="linearGradient3079"
       gradientUnits="userSpaceOnUse"
       gradientTransform="matrix(0.9546411,0,0,0.89652685,1.087452,5.3852472)"
       x1="12.578789"
       y1="-7.8073711"
       x2="12.578789"
       y2="41.827358" />
    <linearGradient
       inkscape:collect="always"
       xlink:href="#linearGradient4008-764"
       id="linearGradient3084"
       gradientUnits="userSpaceOnUse"
       gradientTransform="matrix(0.9574517,0,0,0.90347072,1.021174,4.3056324)"
       x1="10.014208"
       y1="44.960102"
       x2="10.014208"
       y2="2.8764627" />
    <radialGradient
       inkscape:collect="always"
       xlink:href="#linearGradient5060-6"
       id="radialGradient3087"
       gradientUnits="userSpaceOnUse"
       gradientTransform="matrix(-0.06553443,0,0,0.02470588,47.673126,31.941639)"
       cx="605.71429"
       cy="486.64789"
       fx="605.71429"
       fy="486.64789"
       r="117.14286" />
    <radialGradient
       inkscape:collect="always"
       xlink:href="#linearGradient5060-6"
       id="radialGradient3090"
       gradientUnits="userSpaceOnUse"
       gradientTransform="matrix(0.06553443,0,0,0.02470588,0.326884,31.941639)"
       cx="605.71429"
       cy="486.64789"
       fx="605.71429"
       fy="486.64789"
       r="117.14286" />
    <linearGradient
       inkscape:collect="always"
       xlink:href="#linearGradient5048-7"
       id="linearGradient3093"
       gradientUnits="userSpaceOnUse"
       gradientTransform="matrix(0.06553443,0,0,0.02470588,0.3139865,31.941639)"
       x1="302.85715"
       y1="366.64789"
       x2="302.85715"
       y2="609.50507" />
    <linearGradient
       inkscape:collect="always"
       xlink:href="#linearGradient3707-319-631-407-1-9-274"
       id="linearGradient3097"
       gradientUnits="userSpaceOnUse"
       gradientTransform="matrix(0.99197709,0,0,1.427874,13.553274,8.5189049)"
       x1="15.085011"
       y1="25.619688"
       x2="14.973154"
       y2="14.926175" />
    <linearGradient
       inkscape:collect="always"
       xlink:href="#linearGradient3702-501-757"
       id="linearGradient3656"
       gradientUnits="userSpaceOnUse"
       x1="25.058096"
       y1="47.027729"
       x2="25.058096"
       y2="39.999443" />
    <linearGradient
       id="linearGradient3702-501-757">
      <stop
         id="stop2895"
         style="stop-color:#181818;stop-opacity:0"
         offset="0" />
      <stop
         id="stop2897"
         style="stop-color:#181818;stop-opacity:1"
         offset="0.5" />
      <stop
         id="stop2899"
         style="stop-color:#181818;stop-opacity:0"
         offset="1" />
    </linearGradient>
    <linearGradient
       id="linearGradient3688-464-309">
      <stop
         id="stop2889"
         style="stop-color:#181818;stop-opacity:1"
         offset="0" />
      <stop
         id="stop2891"
         style="stop-color:#181818;stop-opacity:0"
         offset="1" />
    </linearGradient>
    <radialGradient
       r="2.5"
       fy="43.5"
       fx="4.9929786"
       cy="43.5"
       cx="4.9929786"
       gradientTransform="matrix(2.003784,0,0,1.4,-20.01187,-104.4)"
       gradientUnits="userSpaceOnUse"
       id="radialGradient3015"
       xlink:href="#linearGradient3688-464-309"
       inkscape:collect="always" />
    <linearGradient
       id="linearGradient3688-166-749">
      <stop
         id="stop2883"
         style="stop-color:#181818;stop-opacity:1"
         offset="0" />
      <stop
         id="stop2885"
         style="stop-color:#181818;stop-opacity:0"
         offset="1" />
    </linearGradient>
    <radialGradient
       r="2.5"
       fy="43.5"
       fx="4.9929786"
       cy="43.5"
       cx="4.9929786"
       gradientTransform="matrix(2.003784,0,0,1.4,27.98813,-17.4)"
       gradientUnits="userSpaceOnUse"
       id="radialGradient3013"
       xlink:href="#linearGradient3688-166-749"
       inkscape:collect="always" />
    <linearGradient
       id="linearGradient3707-319-631-407-324">
      <stop
         offset="0"
         style="stop-color:#185f9a;stop-opacity:1;"
         id="stop3760" />
      <stop
         offset="1"
         style="stop-color:#599ec9;stop-opacity:1;"
         id="stop3762" />
    </linearGradient>
    <linearGradient
       inkscape:collect="always"
       xlink:href="#linearGradient3707-319-631-407-324"
       id="linearGradient2876"
       gradientUnits="userSpaceOnUse"
       gradientTransform="translate(1.2e-6,1)"
       x1="24"
       y1="44"
       x2="24"
       y2="3.8990016" />
    <linearGradient
       id="linearGradient2867-449-88-871-390-598-476-591-434-148-57-177">
      <stop
         offset="0"
         style="stop-color:#90dbec;stop-opacity:1;"
         id="stop3750" />
      <stop
         offset="0.26238"
         style="stop-color:#55c1ec;stop-opacity:1;"
         id="stop3752" />
      <stop
         offset="0.704952"
         style="stop-color:#3689e6;stop-opacity:1;"
         id="stop3754" />
      <stop
         offset="1"
         style="stop-color:#2b63a0;stop-opacity:1;"
         id="stop3756" />
    </linearGradient>
    <radialGradient
       inkscape:collect="always"
       xlink:href="#linearGradient2867-449-88-871-390-598-476-591-434-148-57-177"
       id="radialGradient2874"
       gradientUnits="userSpaceOnUse"
       gradientTransform="matrix(1.9428467e-8,2.33699,-2.4722567,-4.3056275e-8,44.890104,-11.434799)"
       cx="7.4956832"
       cy="8.4497671"
       fx="7.4956832"
       fy="8.4497671"
       r="19.99999" />
    <linearGradient
       id="linearGradient3924">
      <stop
         id="stop3926"
         style="stop-color:#ffffff;stop-opacity:1;"
         offset="0" />
      <stop
         offset="0.06316455"
         style="stop-color:#ffffff;stop-opacity:0.23529412;"
         id="stop3928" />
      <stop
         id="stop3930"
         style="stop-color:#ffffff;stop-opacity:0.15686275;"
         offset="0.95056331" />
      <stop
         id="stop3932"
         style="stop-color:#ffffff;stop-opacity:0.39215687;"
         offset="1" />
    </linearGradient>
    <linearGradient
       y2="43"
       x2="23.99999"
       y1="4.999989"
       x1="23.99999"
       gradientTransform="translate(3.7e-6,1.00001)"
       gradientUnits="userSpaceOnUse"
       id="linearGradient2959"
       xlink:href="#linearGradient3924"
       inkscape:collect="always" />
    <linearGradient
       id="linearGradient8265-821-176-38-919-66-249-7-7-9">
      <stop
         id="stop2687-1-9-9"
         style="stop-color:#ffffff;stop-opacity:1"
         offset="0" />
      <stop
         id="stop2689-5-4-4"
         style="stop-color:#ffffff;stop-opacity:0"
         offset="1" />
    </linearGradient>
    <linearGradient
       y2="24.627615"
       x2="20.054544"
       y1="15.298182"
       x1="16.626165"
       gradientTransform="matrix(0.82498024,0,0,1.3012336,4.1618797,-1.4329212)"
       gradientUnits="userSpaceOnUse"
       id="linearGradient3568"
       xlink:href="#linearGradient8265-821-176-38-919-66-249-7-7-9"
       inkscape:collect="always" />
    <linearGradient
       id="linearGradient3707-319-631-407-1-9-274">
      <stop
         id="stop3776"
         style="stop-color:#365a7c;stop-opacity:1"
         offset="0" />
      <stop
         id="stop3778"
         style="stop-color:#5ea1ca;stop-opacity:1;"
         offset="1" />
    </linearGradient>
    <linearGradient
       y2="5.2502403"
       x2="19.874987"
       y1="44.520065"
       x1="19.874987"
       gradientUnits="userSpaceOnUse"
       id="linearGradient3370"
       xlink:href="#linearGradient3707-319-631-407-1-9-274"
       inkscape:collect="always" />
    <linearGradient
       id="linearGradient3707-319-631-407-1-4-477">
      <stop
         id="stop3782"
         style="stop-color:#365a7c;stop-opacity:1"
         offset="0" />
      <stop
         id="stop3784"
         style="stop-color:#5ea1ca;stop-opacity:1;"
         offset="1" />
    </linearGradient>
    <linearGradient
       y2="5.2502403"
       x2="19.874987"
       y1="44.520065"
       x1="19.874987"
       gradientUnits="userSpaceOnUse"
       id="linearGradient3372"
       xlink:href="#linearGradient3707-319-631-407-1-4-477"
       inkscape:collect="always" />
    <linearGradient
       id="linearGradient3707-319-631-407-1-846">
      <stop
         id="stop3788"
         style="stop-color:#365a7c;stop-opacity:1"
         offset="0" />
      <stop
         id="stop3790"
         style="stop-color:#5ea1ca;stop-opacity:1;"
         offset="1" />
    </linearGradient>
    <linearGradient
       y2="5.2502403"
       x2="19.874987"
       y1="44.520065"
       x1="19.874987"
       gradientUnits="userSpaceOnUse"
       id="linearGradient3374"
       xlink:href="#linearGradient3707-319-631-407-1-846"
       inkscape:collect="always" />
    <linearGradient
       inkscape:collect="always"
       xlink:href="#linearGradient2867-449-88-871-390-598-476-591-434-148-57-177"
       id="linearGradient4019"
       x1="37.610168"
       y1="33.726479"
       x2="37.610168"
       y2="42.580353"
       gradientUnits="userSpaceOnUse"
       gradientTransform="matrix(1.0833333,0,0,1,-3.6249983,0)" />
    <linearGradient
       inkscape:collect="always"
       xlink:href="#linearGradient2238-2-3"
       id="linearGradient4023"
       gradientUnits="userSpaceOnUse"
       gradientTransform="matrix(1.1445891,0,0,1.427874,9.9460815,9.5189083)"
       x1="22.657236"
       y1="23.320877"
       x2="22.657236"
       y2="17.969503" />
    <linearGradient
       inkscape:collect="always"
       xlink:href="#linearGradient4008-764"
       id="linearGradient4052"
       x1="17.669491"
       y1="44.237286"
       x2="17.669491"
       y2="7.8276315"
       gradientUnits="userSpaceOnUse" />
    <linearGradient
       id="linearGradient3397-0-3">
      <stop
         offset="0"
         style="stop-color:#aaaaaa;stop-opacity:1"
         id="stop3399-4-5" />
      <stop
         offset="1"
         style="stop-color:#8c8c8c;stop-opacity:1"
         id="stop3401-0-8" />
    </linearGradient>
    <linearGradient
       y2="47.044857"
       x2="25.922546"
       y1="19"
       x1="25.922546"
       gradientTransform="matrix(0.77777782,0,0,0.77777782,-12.111112,-13.666669)"
       gradientUnits="userSpaceOnUse"
       id="linearGradient3023"
       xlink:href="#linearGradient3397-0-3"
       inkscape:collect="always" />
    <linearGradient
       gradientUnits="userSpaceOnUse"
       id="linearGradient3309-1-9"
       y2="122.8994"
       x2="63.9995"
       y1="3.1001"
       x1="63.9995">
      <stop
         offset="0"
         style="stop-color:#f6f6f6;stop-opacity:1"
         id="stop3311-5-9" />
      <stop
         offset="1"
         style="stop-color:#d2d2d2;stop-opacity:1"
         id="stop3313-0-9" />
    </linearGradient>
    <linearGradient
       y2="47.012184"
       x2="32.036148"
       y1="19"
       x1="32.036148"
       gradientTransform="matrix(0.77777782,0,0,0.77777782,-12.111112,-13.666669)"
       gradientUnits="userSpaceOnUse"
       id="linearGradient3021-0"
       xlink:href="#linearGradient3309-1-9"
       inkscape:collect="always" />
    <radialGradient
       r="7.228416"
       fy="73.615715"
       fx="6.702713"
       cy="73.615715"
       cx="6.702713"
       gradientTransform="matrix(1.6600963,0,0,0.36315008,0.8728521,-5.3585521)"
       gradientUnits="userSpaceOnUse"
       id="radialGradient3026"
       xlink:href="#linearGradient10691"
       inkscape:collect="always" />
    <linearGradient
       y2="47.012184"
       x2="32.036148"
       y1="19"
       x1="32.036148"
       gradientTransform="matrix(0.77777782,0,0,0.77777782,-12.111112,-13.666669)"
       gradientUnits="userSpaceOnUse"
       id="linearGradient3021"
       xlink:href="#linearGradient3309-1"
       inkscape:collect="always" />
    <linearGradient
       y2="20.895"
       x2="84.63858"
       y1="105.105"
       x1="86.132919"
       gradientTransform="matrix(0.15623116,0,0,0.15623125,2.0012002,2.157431)"
       gradientUnits="userSpaceOnUse"
       id="linearGradient3017"
       xlink:href="#linearGradient5128"
       inkscape:collect="always" />
    <linearGradient
       y2="22.006775"
       x2="12.47939"
       y1="2"
       x1="12.47939"
       gradientUnits="userSpaceOnUse"
       id="linearGradient3014"
       xlink:href="#linearGradient3805"
       inkscape:collect="always" />
    <linearGradient
       gradientTransform="matrix(1.0116033,0,0,1.0116033,-0.13923977,-0.1392394)"
       y2="8"
       x2="12"
       y1="16"
       x1="12"
       gradientUnits="userSpaceOnUse"
       id="linearGradient3011"
       xlink:href="#linearGradient3805"
       inkscape:collect="always" />
    <radialGradient
       gradientTransform="matrix(1.6600963,0,0,0.36315008,0.8728521,2.6414479)"
       gradientUnits="userSpaceOnUse"
       xlink:href="#linearGradient10691"
       id="radialGradient3877"
       fy="73.615715"
       fx="6.702713"
       r="7.228416"
       cy="73.615715"
       cx="6.702713" />
    <linearGradient
       id="linearGradient10691">
      <stop
         offset="0"
         style="stop-color:#000000;stop-opacity:1"
         id="stop10693" />
      <stop
         offset="1"
         style="stop-color:#000000;stop-opacity:0"
         id="stop10695" />
    </linearGradient>
    <linearGradient
       id="linearGradient3397-0">
      <stop
         offset="0"
         style="stop-color:#aaaaaa;stop-opacity:1"
         id="stop3399-4" />
      <stop
         offset="1"
         style="stop-color:#8c8c8c;stop-opacity:1"
         id="stop3401-0" />
    </linearGradient>
    <linearGradient
       gradientTransform="matrix(0.77777782,0,0,0.77777782,-12.111112,-5.666669)"
       gradientUnits="userSpaceOnUse"
       xlink:href="#linearGradient3397-0"
       id="linearGradient3616-9"
       y2="47.044857"
       x2="25.922546"
       y1="19"
       x1="25.922546" />
    <linearGradient
       gradientUnits="userSpaceOnUse"
       id="linearGradient3309-1"
       y2="122.8994"
       x2="63.9995"
       y1="3.1001"
       x1="63.9995">
      <stop
         offset="0"
         style="stop-color:#f6f6f6;stop-opacity:1"
         id="stop3311-5" />
      <stop
         offset="1"
         style="stop-color:#d2d2d2;stop-opacity:1"
         id="stop3313-0" />
    </linearGradient>
    <linearGradient
       gradientTransform="matrix(0.77777782,0,0,0.77777782,-12.111112,-5.666669)"
       gradientUnits="userSpaceOnUse"
       xlink:href="#linearGradient3309-1"
       id="linearGradient3614-2"
       y2="47.012184"
       x2="32.036148"
       y1="19"
       x1="32.036148" />
    <linearGradient
       id="linearGradient5128">
      <stop
         offset="0"
         style="stop-color:#ffffff;stop-opacity:1"
         id="stop5130" />
      <stop
         offset="1"
         style="stop-color:#959595;stop-opacity:1"
         id="stop5132" />
    </linearGradient>
    <linearGradient
       gradientTransform="matrix(0.15623116,0,0,0.15623125,2.0012002,10.157431)"
       gradientUnits="userSpaceOnUse"
       xlink:href="#linearGradient5128"
       id="linearGradient3610"
       y2="20.895"
       x2="84.63858"
       y1="105.105"
       x1="86.132919" />
    <linearGradient
       gradientTransform="translate(0,8)"
       gradientUnits="userSpaceOnUse"
       xlink:href="#linearGradient3805"
       id="linearGradient3814"
       y2="22.006775"
       x2="12.47939"
       y1="2"
       x1="12.47939" />
    <linearGradient
       id="linearGradient3805">
      <stop
         offset="0"
         style="stop-color:#ffffff;stop-opacity:1"
         id="stop3807" />
      <stop
         offset="1"
         style="stop-color:#ffffff;stop-opacity:0"
         id="stop3809" />
    </linearGradient>
    <linearGradient
       gradientUnits="userSpaceOnUse"
       xlink:href="#linearGradient3805"
       id="linearGradient3830"
       y2="8"
       x2="12"
       y1="16"
       x1="12" />
  </defs>
  <rect
     style="opacity:0.40206185;fill:url(#linearGradient3093);fill-opacity:1;fill-rule:nonzero;stroke:none;stroke-width:1;marker:none;visibility:visible;display:inline;overflow:visible"
     id="rect2512"
     y="41"
     x="8.1781178"
     height="6.0000005"
     width="31.643764" />
  <path
     inkscape:connector-curvature="0"
     style="opacity:0.40206185;fill:url(#radialGradient3090);fill-opacity:1;fill-rule:nonzero;stroke:none;stroke-width:1;marker:none;visibility:visible;display:inline;overflow:visible"
     id="path2514"
     d="m 39.821883,41.000206 c 0,0 0,5.999669 0,5.999669 3.374861,0.01129 8.158771,-1.344221 8.158769,-3.000221 0,-1.655999 -3.76609,-2.999448 -8.158769,-2.999448 z" />
  <path
     inkscape:connector-curvature="0"
     style="opacity:0.40206185;fill:url(#radialGradient3087);fill-opacity:1;fill-rule:nonzero;stroke:none;stroke-width:1;marker:none;visibility:visible;display:inline;overflow:visible"
     id="path2516"
     d="m 8.178118,41.000206 c 0,0 0,5.999669 0,5.999669 -3.3748615,0.01129 -8.15877068,-1.344221 -8.15877068,-3.000221 0,-1.655999 3.76609018,-2.999448 8.15877068,-2.999448 z" />
  <rect
     style="fill:#eeeeee;fill-opacity:1;fill-rule:evenodd;stroke:url(#linearGradient3084);stroke-width:1.00213288999999994;stroke-linecap:round;stroke-linejoin:round;stroke-miterlimit:4;stroke-opacity:1;stroke-dasharray:none;stroke-dashoffset:0"
     id="rect2551"
     y="7.5010691"
     x="1.5010625"
     ry="1.4989328"
     rx="1.4989328"
     height="36.997868"
     width="44.997868" />
  <rect
     style="opacity:0.6;fill:none;stroke:url(#linearGradient3079);stroke-width:1.00373149000000006;stroke-linecap:round;stroke-linejoin:round;stroke-miterlimit:4;stroke-opacity:1;stroke-dasharray:none;stroke-dashoffset:0"
     id="rect2556"
     y="8.5018702"
     x="2.5018635"
     ry="0.49813169"
     rx="0.49813175"
     height="34.996269"
     width="42.996269" />
  <path
     inkscape:connector-curvature="0"
     style="opacity:1;fill:url(#linearGradient3069);fill-opacity:1;stroke:none"
     id="path2604"
     d="m 46,31 0,9.75 C 46,42.430153 45.544941,44 45,44 L 3,44 C 2.4655144,44 2,42.441622 2,40.75 L 2,31 46,31 z" />
  <rect
     style="opacity:0.9;fill:#ffffff;fill-opacity:1;stroke:url(#linearGradient3076);stroke-width:0.99999994;stroke-miterlimit:4;stroke-opacity:1;stroke-dasharray:none"
     id="rect2596"
     y="15.500001"
     x="10.5"
     ry="1.5"
     rx="1.5"
     height="9"
     width="27" />
  <rect
     style="opacity:0.4;fill:none;stroke:url(#linearGradient3066);stroke-width:0.99999982;stroke-miterlimit:4;stroke-opacity:1;stroke-dasharray:none"
     id="rect2706"
     y="14.5"
     x="9.5"
     ry="2.3377116"
     rx="2.3377116"
     height="11"
     width="29" />
  <g
     id="g2701"
     transform="translate(0.93938619,-5.67224)">
    <path
       inkscape:connector-curvature="0"
       style="fill:#000000;fill-opacity:1;stroke:none"
       id="path2600"
       d="m 16.993907,25.672094 c 4.59e-4,1.067511 -0.865174,1.933147 -1.933146,1.933147 -1.067977,0 -1.933613,-0.865636 -1.933147,-1.933147 -4.66e-4,-1.067512 0.86517,-1.933147 1.933147,-1.933147 1.067972,0 1.933605,0.865635 1.933146,1.933147 z"
       sodipodi:nodetypes="cscscc" />
    <path
       d="m 21.993907,25.672094 c 4.59e-4,1.067511 -0.865174,1.933147 -1.933146,1.933147 -1.067977,0 -1.933613,-0.865636 -1.933147,-1.933147 -4.66e-4,-1.067512 0.86517,-1.933147 1.933147,-1.933147 1.067972,0 1.933605,0.865635 1.933146,1.933147 z"
       id="path4054"
       style="fill:#000000;fill-opacity:1;stroke:none"
       inkscape:connector-curvature="0"
       sodipodi:nodetypes="cscsc" />
    <path
       inkscape:connector-curvature="0"
       style="fill:#000000;fill-opacity:1;stroke:none"
       id="path4056"
       d="m 26.993907,25.672094 c 4.59e-4,1.067511 -0.865174,1.933147 -1.933146,1.933147 -1.067977,0 -1.933613,-0.865636 -1.933147,-1.933147 -4.66e-4,-1.067512 0.86517,-1.933147 1.933147,-1.933147 1.067972,0 1.933605,0.865635 1.933146,1.933147 z"
       sodipodi:nodetypes="cscsc" />
    <path
       d="m 31.993907,25.672094 c 4.59e-4,1.067511 -0.865174,1.933147 -1.933146,1.933147 -1.067977,0 -1.933613,-0.865636 -1.933147,-1.933147 -4.66e-4,-1.067512 0.86517,-1.933147 1.933147,-1.933147 1.067972,0 1.933605,0.865635 1.933146,1.933147 z"
       id="path4058"
       style="fill:#000000;fill-opacity:1;stroke:none"
       inkscape:connector-curvature="0"
       sodipodi:nodetypes="cscsc" />
  </g>
  <rect
     width="13"
     height="7"
     rx="2.0442562"
     ry="1.9802272"
     x="30.5"
     y="34.5"
     id="rect3095"
     style="opacity:0.9;fill:url(#linearGradient4019);fill-opacity:1;stroke:url(#linearGradient3097);stroke-width:0.99999994;stroke-miterlimit:4;stroke-opacity:1;stroke-dasharray:none" />
  <rect
     width="15"
     height="7"
     rx="2.8362784"
     ry="2.5045819"
     x="29.5"
     y="35.5"
     id="rect4021"
     style="opacity:0.4;fill:none;stroke:url(#linearGradient4023);stroke-width:0.99999994;stroke-miterlimit:4;stroke-opacity:1;stroke-dasharray:none" />
  <path
     style="fill:none;stroke:url(#linearGradient4052);stroke-width:0.99999994000000003px;stroke-linecap:butt;stroke-linejoin:miter;stroke-opacity:1"
     d="m 2,30.610169 44,0"
     id="path4044"
     inkscape:connector-curvature="0"
     sodipodi:nodetypes="cc" />
  <g
     id="g4141"
     transform="translate(-1,25)">
    <path
       d="m 10.5,1.5 c -0.554,0 -1,0.446 -1,1 l 0,1.375 C 8.9926705,4.030783 8.4932312,4.225474 8.03125,4.46875 L 7.0625,3.5 C 6.6707628,3.108263 6.0167372,3.108263 5.625,3.5 L 3.5,5.625 C 3.1082628,6.016737 3.1082628,6.670763 3.5,7.0625 L 4.46875,8.03125 C 4.2254741,8.493231 4.0307828,8.99267 3.875,9.5 L 2.5,9.5 c -0.554,0 -1,0.446 -1,1 l 0,3 c 0,0.554 0.446,1 1,1 l 1.375,0 c 0.1557828,0.507329 0.3504741,1.006769 0.59375,1.46875 L 3.5,16.9375 c -0.3917372,0.391737 -0.3917372,1.045763 0,1.4375 L 5.625,20.5 c 0.3917372,0.391737 1.0457628,0.391737 1.4375,0 L 8.03125,19.53125 C 8.4932312,19.774526 8.9926705,19.969217 9.5,20.125 l 0,1.375 c 0,0.554 0.446,1 1,1 l 3,0 c 0.554,0 1,-0.446 1,-1 l 0,-1.375 c 0.507329,-0.155783 1.006769,-0.350474 1.46875,-0.59375 L 16.9375,20.5 c 0.391737,0.391737 1.045763,0.391737 1.4375,0 L 20.5,18.375 c 0.391737,-0.391737 0.391737,-1.045763 0,-1.4375 L 19.53125,15.96875 C 19.774526,15.506769 19.969217,15.007329 20.125,14.5 l 1.375,0 c 0.554,0 1,-0.446 1,-1 l 0,-3 c 0,-0.554 -0.446,-1 -1,-1 l -1.375,0 C 19.969217,8.99267 19.774526,8.493231 19.53125,8.03125 L 20.5,7.0625 c 0.391737,-0.391737 0.391737,-1.045763 0,-1.4375 L 18.375,3.5 C 17.983263,3.108263 17.329237,3.108263 16.9375,3.5 L 15.96875,4.46875 C 15.506769,4.225474 15.007329,4.030783 14.5,3.875 l 0,-1.375 c 0,-0.554 -0.446,-1 -1,-1 l -3,0 z m 1.5,8 c 1.380712,0 2.5,1.119288 2.5,2.5 0,1.380712 -1.119288,2.5 -2.5,2.5 -1.380712,0 -2.5,-1.119288 -2.5,-2.5 0,-1.380712 1.119288,-2.5 2.5,-2.5 z"
       inkscape:connector-curvature="0"
       id="rect3623"
       style="color:#000000;fill:url(#linearGradient3021);fill-opacity:1;fill-rule:nonzero;stroke:none;stroke-width:1;marker:none;visibility:visible;display:block;overflow:visible;enable-background:accumulate" />
    <path
       d="m 12,6 c -3.310303,0 -6,2.689698 -6,6 0,3.310302 2.689697,6 6,6 3.310301,0 6,-2.689698 6,-6 0,-3.310302 -2.689699,-6 -6,-6 z m 0,3 c 1.656854,0 3,1.343146 3,3 0,1.656854 -1.343146,3 -3,3 -1.656854,0 -3,-1.343146 -3,-3 0,-1.656854 1.343146,-3 3,-3 z"
       inkscape:connector-curvature="0"
       id="path3315"
       style="opacity:0.05;fill:#000000;fill-opacity:1;stroke:none" />
    <path
       d="m 12,5.499999 c -3.5841018,0 -6.5,2.9159 -6.5,6.499999 C 5.5,15.5841 8.4158982,18.5 12,18.5 c 3.584101,0 6.5,-2.9159 6.5,-6.500002 0,-3.584099 -2.915899,-6.499999 -6.5,-6.499999 z"
       inkscape:connector-curvature="0"
       id="path28"
       style="fill:none;stroke:url(#linearGradient3017);stroke-width:1;stroke-miterlimit:4;stroke-dasharray:none" />
    <path
       d="M 10.5,2.46875 C 10.42583,2.857469 10.4905,3.369858 10.46875,3.805183 10.53344,4.583262 9.6984733,4.858037 9.1004648,5.021793 8.5534413,5.333029 7.7514701,5.693691 7.2634975,5.075993 6.9673317,4.779832 6.6711658,4.483666 6.375,4.1875 5.9432707,4.474172 5.5902425,4.950845 5.1889654,5.311035 4.8695012,5.671637 4.4334278,5.983938 4.1875,6.375 4.5945204,6.865131 5.2360159,7.212591 5.413298,7.851969 5.388634,8.650433 4.8731381,9.381187 4.6009101,10.118994 4.0990892,10.683344 3.2858688,10.399662 2.6265645,10.46875 2.2819972,10.45587 2.5562355,11.055097 2.46875,11.294459 c 0.00121,0.744981 -0.0024,1.490108 0.00179,2.234998 0.6455598,0.06419 1.3569859,-0.150581 1.9454937,0.179668 0.5556121,0.579212 0.6756354,1.474124 1.0067725,2.188766 0.04177,0.75274 -0.7323134,1.126431 -1.1493366,1.641136 -0.2173877,0.272406 0.385277,0.504146 0.5159207,0.750367 0.5077022,0.507702 1.0154043,1.015404 1.5231065,1.523106 0.5224633,-0.304869 0.8397278,-0.98896 1.4454346,-1.204942 0.8151392,-0.106648 1.5136871,0.546448 2.2838276,0.733976 0.650694,0.452082 0.363529,1.310427 0.426988,1.975154 -0.08851,0.418476 0.527859,0.12987 0.768962,0.214562 0.763896,-0.0012 1.527939,0.0024 2.291745,-0.0018 0.06419,-0.64556 -0.150581,-1.356986 0.179668,-1.945494 0.579212,-0.555612 1.474124,-0.675635 2.188766,-1.006772 0.75274,-0.04177 1.126431,0.732313 1.641136,1.149336 0.272406,0.217388 0.504146,-0.385277 0.750367,-0.515921 0.507702,-0.507702 1.015404,-1.015404 1.523106,-1.523106 -0.304869,-0.522463 -0.98896,-0.839728 -1.204942,-1.445435 -0.106648,-0.815139 0.546448,-1.513687 0.733976,-2.283827 0.452082,-0.650694 1.310427,-0.363529 1.975154,-0.426988 0.418476,0.08851 0.12987,-0.527859 0.214562,-0.768962 -0.0012,-0.763896 0.0024,-1.527939 -0.0018,-2.291745 -0.64556,-0.06419 -1.356986,0.150581 -1.945494,-0.179668 C 19.028351,9.711663 18.908328,8.816751 18.577191,8.102109 18.535421,7.349369 19.309504,6.975678 19.726527,6.460973 19.943915,6.188567 19.34125,5.956827 19.210606,5.710607 18.702904,5.202904 18.195202,4.695202 17.6875,4.1875 17.165037,4.492369 16.847772,5.17646 16.242065,5.392442 15.426926,5.49909 14.728378,4.845994 13.958238,4.658466 13.307544,4.206384 13.594709,3.348039 13.53125,2.683312 13.61976,2.264836 13.003391,2.553442 12.762288,2.46875 c -0.754096,0 -1.508192,0 -2.262288,0 z"
       inkscape:connector-curvature="0"
       id="path3799"
       style="opacity:0.8;color:#000000;fill:none;stroke:url(#linearGradient3014);stroke-width:1;stroke-linecap:butt;stroke-linejoin:round;stroke-miterlimit:4;stroke-opacity:1;stroke-dasharray:none;stroke-dashoffset:0;marker:none;visibility:visible;display:block;overflow:visible;enable-background:accumulate" />
    <path
       d="m 15.5,12 a 3.5,3.5 0 1 1 -7,0 3.5,3.5 0 1 1 7,0 z"
       id="path3822"
       style="opacity:0.4;color:#000000;fill:none;stroke:url(#linearGradient3011);stroke-width:0.99999994;stroke-opacity:1;marker:none;visibility:visible;display:block;overflow:visible;enable-background:accumulate"
       inkscape:connector-curvature="0" />
    <path
       d="m 10.5,1.5 c -0.554,0 -1,0.446 -1,1 l 0,1.375 C 8.9926705,4.030783 8.4932312,4.225474 8.03125,4.46875 L 7.0625,3.5 C 6.6707628,3.108263 6.0167372,3.108263 5.625,3.5 L 3.5,5.625 C 3.1082628,6.016737 3.1082628,6.670763 3.5,7.0625 L 4.46875,8.03125 C 4.2254741,8.493231 4.0307828,8.99267 3.875,9.5 L 2.5,9.5 c -0.554,0 -1,0.446 -1,1 l 0,3 c 0,0.554 0.446,1 1,1 l 1.375,0 c 0.1557828,0.507329 0.3504741,1.006769 0.59375,1.46875 L 3.5,16.9375 c -0.3917372,0.391737 -0.3917372,1.045763 0,1.4375 L 5.625,20.5 c 0.3917372,0.391737 1.0457628,0.391737 1.4375,0 L 8.03125,19.53125 C 8.4932312,19.774526 8.9926705,19.969217 9.5,20.125 l 0,1.375 c 0,0.554 0.446,1 1,1 l 3,0 c 0.554,0 1,-0.446 1,-1 l 0,-1.375 c 0.507329,-0.155783 1.006769,-0.350474 1.46875,-0.59375 L 16.9375,20.5 c 0.391737,0.391737 1.045763,0.391737 1.4375,0 L 20.5,18.375 c 0.391737,-0.391737 0.391737,-1.045763 0,-1.4375 L 19.53125,15.96875 C 19.774526,15.506769 19.969217,15.007329 20.125,14.5 l 1.375,0 c 0.554,0 1,-0.446 1,-1 l 0,-3 c 0,-0.554 -0.446,-1 -1,-1 l -1.375,0 C 19.969217,8.99267 19.774526,8.493231 19.53125,8.03125 L 20.5,7.0625 c 0.391737,-0.391737 0.391737,-1.045763 0,-1.4375 L 18.375,3.5 C 17.983263,3.108263 17.329237,3.108263 16.9375,3.5 L 15.96875,4.46875 C 15.506769,4.225474 15.007329,4.030783 14.5,3.875 l 0,-1.375 c 0,-0.554 -0.446,-1 -1,-1 l -3,0 z m 1.5,8 c 1.380712,0 2.5,1.119288 2.5,2.5 0,1.380712 -1.119288,2.5 -2.5,2.5 -1.380712,0 -2.5,-1.119288 -2.5,-2.5 0,-1.380712 1.119288,-2.5 2.5,-2.5 z"
       inkscape:connector-curvature="0"
       id="rect3623-2"
       style="opacity:0.3;color:#000000;fill:none;stroke:#000000;stroke-width:1;stroke-linecap:butt;stroke-linejoin:round;stroke-miterlimit:4;stroke-opacity:1;stroke-dasharray:none;stroke-dashoffset:0;marker:none;visibility:visible;display:block;overflow:visible;enable-background:accumulate" />
  </g>
</svg>
